inDegrees=no
num_controls=7
num_derivatives=13
num_iterations=111
num_multipliers=7
num_parameters=0
num_slacks=7
num_states=26
objective=0.467535
objective_accelerations=0.063402
objective_balance=0.004186
objective_effort=0.051759
objective_height=0.342390
objective_ligament=0.005798
solver_duration=1547.924912
status=Solve_Succeeded
success=true
DataType=double
version=3
OpenSimVersion=4.5
endheader
time	/jointset/ground_pelvis/pelvis_tilt/value	/jointset/ground_pelvis/pelvis_tx/value	/jointset/ground_pelvis/pelvis_ty/value	/jointset/hip_l/hip_flexion_l/value	/jointset/hip_l/hip_adduction_l/value	/jointset/hip_l/hip_rotation_l/value	/jointset/back/lumbar_extension/value	/jointset/patellofemoral_l/patellar_flexion_l/value	/jointset/knee_l/knee_flexion_l/value	/jointset/knee_l/knee_adduction_l/value	/jointset/knee_l/knee_rotation_l/value	/jointset/ankle_l/ankle_angle_l/value	/jointset/subtalar_l/subtalar_angle_l/value	/jointset/ground_pelvis/pelvis_tilt/speed	/jointset/ground_pelvis/pelvis_tx/speed	/jointset/ground_pelvis/pelvis_ty/speed	/jointset/hip_l/hip_flexion_l/speed	/jointset/hip_l/hip_adduction_l/speed	/jointset/hip_l/hip_rotation_l/speed	/jointset/back/lumbar_extension/speed	/jointset/patellofemoral_l/patellar_flexion_l/speed	/jointset/knee_l/knee_flexion_l/speed	/jointset/knee_l/knee_adduction_l/speed	/jointset/knee_l/knee_rotation_l/speed	/jointset/ankle_l/ankle_angle_l/speed	/jointset/subtalar_l/subtalar_angle_l/speed	/forceset/tau_hip_flexion_l	/forceset/tau_hip_adduction_l	/forceset/tau_hip_rotation_l	/forceset/tau_knee_flexion_l	/forceset/tau_ankle_angle_l	/forceset/tau_subtalar_angle_l	/forceset/tau_lumbar_extension	lambda_cid13_p0	lambda_cid13_p1	lambda_cid13_p2	lambda_cid13_p3	lambda_cid13_p4	lambda_cid13_p5	lambda_cid14_p0	/jointset/ground_pelvis/pelvis_tilt/accel	/jointset/ground_pelvis/pelvis_tx/accel	/jointset/ground_pelvis/pelvis_ty/accel	/jointset/hip_l/hip_flexion_l/accel	/jointset/hip_l/hip_adduction_l/accel	/jointset/hip_l/hip_rotation_l/accel	/jointset/back/lumbar_extension/accel	/jointset/patellofemoral_l/patellar_flexion_l/accel	/jointset/knee_l/knee_flexion_l/accel	/jointset/knee_l/knee_adduction_l/accel	/jointset/knee_l/knee_rotation_l/accel	/jointset/ankle_l/ankle_angle_l/accel	/jointset/subtalar_l/subtalar_angle_l/accel	gamma_cid13_p0	gamma_cid13_p1	gamma_cid13_p2	gamma_cid13_p3	gamma_cid13_p4	gamma_cid13_p5	gamma_cid14_p0
0	-0.03626059794685297	0.05643248165041205	0.9203515498604915	0.3085816938045678	-0.2954810844613372	-0.2980802598844826	-0.3879492264334186	0.2499269421184992	0.2499269421184919	-0.1745324548188595	-0.171072784099995	-0.0008036623358878681	0.0005575342584278881	0	0	0	0	0	0	0	0	0	0	0	0	0	0.08528790080492157	-0.0427113123236173	-0.01786526934992445	-0.2303575019906126	0.1550671939807674	-0.0169504298047246	-0.01801718615126858	7.192050880582953	3.392292051309637	2.100344381539736	27.18766264552364	-600.6921890408893	-68.954533103269	-23.08024365169443	-1.806046216168109	-2.774539879777888	-1.255033755410184	13.06612166617791	-0.7583460372799612	3.997718954079241	-8.290362656329146	12.5245714818756	12.52457148187561	2.432643798145322	-0.3638166632433522	2.110080796443937	-0.1055643796588623	3.12649275487915e-08	2.635815053402052e-07	5.46421230946276e-08	-3.614368052338534e-08	2.823590100777121e-07	2.842888884025888e-08	1.836040867644076e-08
0.01	-0.03634596558107896	0.05629659747777043	0.9202902046643185	0.3092186878619901	-0.2955193427864178	-0.2978790427487689	-0.3883619747212064	0.2505411596906028	0.2505411596906042	-0.174415810646953	-0.1710861179977777	-0.0006995190486035581	0.0005514153363662766	-0.01702955544269853	-0.02691381540325805	-0.01221946860053217	0.1266702819879252	-0.007606930204611685	0.0400667905491031	-0.08187911536693362	0.1222562464383642	0.1222562464383637	0.02320860993711663	-0.002619115837698711	0.02089811697194608	-0.001151794624321034	0.08196266748045067	-0.05201825399322688	-0.01796481699393117	-0.23275189540278	0.1595402251442504	-0.008089890696336406	-0.01326672768925918	8.839586473965143	-0.6066862976228981	2.58069061513531	23.23272577069473	-604.4438080267859	-77.04986607343329	-23.08763829154417	-1.64482732510871	-2.610356731085731	-1.197911345478801	12.35819469351669	-0.7552115475938093	3.984669110696107	-8.036104647970751	11.98805735535208	11.98805735535194	2.246987739224112	-0.2038093972590562	2.090105942998343	-0.1092373982565198	-2.098428726841472e-08	2.351215435390622e-07	1.931989772593763e-07	1.965686631428023e-08	4.796078581468201e-08	-7.700649803337319e-08	3.689742743586076e-09
0.02	-0.03660031219309524	0.05589946427899831	0.9201081631955197	0.3111005273849688	-0.2956323394206526	-0.2972824557064881	-0.3895733978968838	0.2523603209532053	0.2523603209532039	-0.1740706767461065	-0.171124213124569	-0.0003843088325140052	0.0005359283891739017	-0.03379579555688676	-0.0522498052260978	-0.0241392545252247	0.2489690931125177	-0.01494766183090222	0.07907398131301722	-0.1597349775776493	0.2409887380981384	0.2409887380981372	0.04569794578340345	-0.004952245804437201	0.042213385761026	-0.001873605026155342	0.07863743415596246	-0.06132519566284667	-0.01806436463802095	-0.2351462888149451	0.164013256307731	0.000770648412041661	-0.008516269227254819	10.58577210389315	-4.620297981505513	3.06035291719905	19.14628460000004	-606.7077413540874	-85.02225285958026	-23.10927445204995	-1.753383150465847	-2.45897476369441	-1.195097220242261	12.19182749351141	-0.7051063216157304	3.785798997041432	-7.485712025085454	11.81982052615762	11.81982052615759	2.288788979979372	-0.3066194890513383	2.193511159870498	-0.01956753516158751	-7.323350208562092e-08	2.066615817379191e-07	3.317558314241251e-07	7.54574131519458e-08	-1.864374384483481e-07	-1.824418849070053e-07	-1.09809231892686e-08
0.03	-0.03702068316835739	0.05525571908438542	0.9198079283324029	0.3141849790581676	-0.295817109962346	-0.2963025161486745	-0.3915440637836042	0.2553496443542365	0.255349644354245	-0.1735038284778023	-0.1711854396598625	0.000144687133163785	0.0005151910333716221	-0.05016677681117421	-0.0763503177098151	-0.03590043213015125	0.3672931485351295	-0.0219421906223569	0.1167194885193182	-0.2338484069424784	0.3563124782771838	0.3563124782771768	0.06755731410496869	-0.007248886562056979	0.06350985809604248	-0.002232657777056267	0.07032546609370373	-0.05490925360404569	-0.01700294148033881	-0.2279288304166714	0.1571008428839414	-0.0001891424128285922	-0.001364608610537118	8.311650808066068	-3.889795180152595	3.040429191551578	19.46851791224026	-607.8674389877179	-82.39471680863957	-23.14403945241266	-1.562217797714634	-2.363236776277239	-1.165573369984055	11.5584702636446	-0.6870677885504438	3.724719077910577	-7.29168946829378	11.30413344450172	11.30413344450089	2.117421251611564	-0.184509473864695	2.086327290909478	-0.03796400430061819	-1.021244170148918e-07	1.66558826558868e-07	4.216585998119702e-07	1.038867013796041e-07	-3.230178025149168e-07	-2.522711503527607e-07	-2.217104616063144e-08
0.04	-0.03760141639312756	0.05437543930782127	0.9193902926253638	0.3184338264249881	-0.2960699141180817	-0.2949519630196991	-0.3942393701791967	0.2594753016932158	0.2594753016932152	-0.1727218044276	-0.1712682972236618	0.000884370226310215	0.0004920851782110807	-0.06586824545761397	-0.09955672161634714	-0.04761942330972111	0.4818482318380735	-0.02855438463941426	0.153196695545067	-0.3046630793517654	0.4682555256851791	0.4682555256851688	0.08873310216119283	-0.009278451509575677	0.08435081125474723	-0.002347304897809105	0.06201349803142223	-0.0484933115452514	-0.01594151832278138	-0.2207113720183903	0.1501884294601503	-0.001148933237704531	0.005787052006167777	6.127366186214769	-3.17047985900614	3.017100262362941	19.6594811916539	-607.6852529647612	-79.64946566294614	-23.19050902075086	-1.619480628896109	-2.280153048257543	-1.186659935170926	11.4380330695779	-0.6286393667362606	3.552138960930996	-6.825960633976941	11.14368197194766	11.14368197194809	2.152072926911182	-0.2532043270311524	2.102407324607951	0.02931359086796976	-1.305337175134835e-07	1.26216013784396e-07	5.105581911734874e-07	1.317516337596333e-07	-4.575813034846515e-07	-3.213662689649516e-07	-3.328940535959238e-08
